<?xml version="1.0" encoding="UTF-8" standalone="no"?><!-- Generator: Gravit.io --><svg xmlns="http://www.w3.org/2000/svg" xmlns:xlink="http://www.w3.org/1999/xlink" style="isolation:isolate" viewBox="0 0 200 200" width="200pt" height="200pt"><defs><clipPath id="_clipPath_G4t7TkXO8ZCKtYFBUAxjgHTaRWTvAbQx"><rect width="200" height="200"/></clipPath></defs><g><rect width="200" height="200" style="fill:rgb(0,0,0)"/><path d=" M 147.5 115 L 145 115 L 145 98.109 C 145 96.125 144.203 94.219 142.797 92.813 L 127.188 77.203 C 125.781 75.797 123.875 75 121.891 75 L 115 75 L 115 67.5 C 115 63.359 111.641 60 107.5 60 L 57.5 60 C 53.359 60 50 63.359 50 67.5 L 50 117.5 C 50 121.641 53.359 125 57.5 125 L 60 125 C 60 133.281 66.719 140 75 140 C 83.281 140 90 133.281 90 125 L 110 125 C 110 133.281 116.719 140 125 140 C 133.281 140 140 133.281 140 125 L 147.5 125 C 148.875 125 150 123.875 150 122.5 L 150 117.5 C 150 116.125 148.875 115 147.5 115 Z  M 75 132.5 C 70.859 132.5 67.5 129.141 67.5 125 C 67.5 120.859 70.859 117.5 75 117.5 C 79.141 117.5 82.5 120.859 82.5 125 C 82.5 129.141 79.141 132.5 75 132.5 Z  M 125 132.5 C 120.859 132.5 117.5 129.141 117.5 125 C 117.5 120.859 120.859 117.5 125 117.5 C 129.141 117.5 132.5 120.859 132.5 125 C 132.5 129.141 129.141 132.5 125 132.5 Z  M 137.5 100 L 115 100 L 115 82.5 L 121.891 82.5 L 137.5 98.109 L 137.5 100 Z " fill="rgb(255,255,255)"/></g></svg>
