<svg xmlns="http://www.w3.org/2000/svg" width="17.778" height="22.176" viewBox="0 0 17.778 22.176">
  <path id="Path_206" data-name="Path 206" d="M15021.985,12467.175a2.991,2.991,0,0,1-2.986-2.986v-16.206a2.991,2.991,0,0,1,2.986-2.983h9.309l5.483,6.132v13.058a2.988,2.988,0,0,1-2.983,2.986Zm-1.414-19.192v16.206a1.417,1.417,0,0,0,1.414,1.414h11.809a1.419,1.419,0,0,0,1.414-1.414v-11.971h-5.052v-5.646h-8.171A1.415,1.415,0,0,0,15020.571,12447.982Zm11.157,2.663h2.5l-2.5-2.8Zm-4.514,12.174v-3.117h-3.114a.672.672,0,1,1,0-1.344h3.114v-3.117a.673.673,0,0,1,1.347,0v3.117h3.114a.672.672,0,1,1,0,1.344h-3.114v3.117a.673.673,0,0,1-1.347,0Z" transform="translate(-15018.999 -12444.999)" fill="#8f022c"/>
</svg>
