<svg xmlns="http://www.w3.org/2000/svg" xmlns:xlink="http://www.w3.org/1999/xlink" width="19" height="19" viewBox="0 0 19 19">
  <defs>
    <style>

      .cls-2 {
        fill: currentColor;
      }

      .cls-3 {
        fill: #fff0;
      }
    </style>
    <clipPath id="clip-ico-1-2">
      <rect width="19" height="19"/>
    </clipPath>
  </defs>
  <g id="ico-1-2" class="cls-1">
    <rect class="cls-3" width="19" height="19"/>
    <g id="list_black_24dp">
      <path id="Path_186" data-name="Path 186" class="cls-2" d="M3,13H4.556V11H3Zm0,4H4.556V15H3ZM3,9H4.556V7H3Zm3.111,4H17V11H6.111Zm0,4H17V15H6.111Zm0-10V9H17V7ZM3,13H4.556V11H3Zm0,4H4.556V15H3ZM3,9H4.556V7H3Zm3.111,4H17V11H6.111Zm0,4H17V15H6.111Zm0-10V9H17V7Z" transform="translate(0 -2)"/>
    </g>
  </g>
</svg>
