<svg xmlns="http://www.w3.org/2000/svg" xmlns:xlink="http://www.w3.org/1999/xlink" width="19" height="19" viewBox="0 0 19 19">
  <defs>
    <style>
      .cls-1 {
        clip-path: url(#clip-ico-6);
      }

      .cls-2 {
        fill: currentColor;
      }

      .cls-3 {
        fill: #fff0;
      }
    </style>
    <clipPath id="clip-ico-6">
      <rect width="19" height="19"/>
    </clipPath>
  </defs>
  <g id="ico-6" class="cls-1">
    <rect class="cls-3" width="19" height="19"/>
    <g id="Group_226" data-name="Group 226" transform="translate(-17.625 -384.899)">
      <path id="Rectangle_3659" data-name="Rectangle 3659" class="cls-2" d="M2,1.5a.5.5,0,0,0-.5.5V4a.5.5,0,0,0,.5.5H4A.5.5,0,0,0,4.5,4V2A.5.5,0,0,0,4,1.5H2M2,0H4A2,2,0,0,1,6,2V4A2,2,0,0,1,4,6H2A2,2,0,0,1,0,4V2A2,2,0,0,1,2,0Z" transform="translate(18.5 388)"/>
      <path id="Rectangle_3660" data-name="Rectangle 3660" class="cls-2" d="M2,1.5a.5.5,0,0,0-.5.5V4a.5.5,0,0,0,.5.5H4A.5.5,0,0,0,4.5,4V2A.5.5,0,0,0,4,1.5H2M2,0H4A2,2,0,0,1,6,2V4A2,2,0,0,1,4,6H2A2,2,0,0,1,0,4V2A2,2,0,0,1,2,0Z" transform="translate(18.5 395.5)"/>
      <path id="Line_48" data-name="Line 48" class="cls-2" d="M8,.75H0A.75.75,0,0,1-.75,0,.75.75,0,0,1,0-.75H8A.75.75,0,0,1,8.75,0,.75.75,0,0,1,8,.75Z" transform="translate(27 389.5)"/>
      <path id="Line_50" data-name="Line 50" class="cls-2" d="M8,.75H0A.75.75,0,0,1-.75,0,.75.75,0,0,1,0-.75H8A.75.75,0,0,1,8.75,0,.75.75,0,0,1,8,.75Z" transform="translate(27 397)"/>
      <path id="Line_49" data-name="Line 49" class="cls-2" d="M5,.75H0A.75.75,0,0,1-.75,0,.75.75,0,0,1,0-.75H5A.75.75,0,0,1,5.75,0,.75.75,0,0,1,5,.75Z" transform="translate(27 392.5)"/>
      <path id="Line_51" data-name="Line 51" class="cls-2" d="M5,.75H0A.75.75,0,0,1-.75,0,.75.75,0,0,1,0-.75H5A.75.75,0,0,1,5.75,0,.75.75,0,0,1,5,.75Z" transform="translate(27 400)"/>
    </g>
  </g>
</svg>
