<svg xmlns="http://www.w3.org/2000/svg" xmlns:xlink="http://www.w3.org/1999/xlink" width="19" height="19" viewBox="0 0 19 19">
  <defs>
    <style>

      .cls-2 {
        fill: currentColor;
      }

      .cls-3 {
        fill: #fff0;
      }
    </style>
    <clipPath id="clip-ico-5">
      <rect width="19" height="19"/>
    </clipPath>
  </defs>
  <g id="ico-5" class="cls-1">
    <rect class="cls-3" width="19" height="19"/>
    <g id="category_black_18dp" transform="translate(-1 -1)">
      <path id="Path_182" data-name="Path 182" class="cls-2" d="M10.105,2,5.763,9.2h8.684Zm0,3.072L11.629,7.6H8.574ZM14.447,10.8A3.6,3.6,0,1,0,18,14.4,3.572,3.572,0,0,0,14.447,10.8Zm0,5.6a2,2,0,1,1,1.974-2A1.988,1.988,0,0,1,14.447,16.4ZM3,17.6H9.316V11.2H3Zm1.579-4.8H7.737V16H4.579Z" transform="translate(0)"/>
    </g>
  </g>
</svg>
