<svg xmlns="http://www.w3.org/2000/svg" xmlns:xlink="http://www.w3.org/1999/xlink" width="19" height="19" viewBox="0 0 19 19">
  <defs>
    <style>

      .cls-2 {
        fill: currentColor;
      }

      .cls-3 {
        fill: #fff0;
      }
    </style>
    <clipPath id="clip-ico-4">
      <rect width="19" height="19"/>
    </clipPath>
  </defs>
  <g id="ico-4" class="cls-1">
    <rect class="cls-3" width="19" height="19"/>
    <g id="shopping_cart_black_18dp">
      <path id="Path_180" data-name="Path 180" class="cls-2" d="M11.754,10.133a1.471,1.471,0,0,0,1.293-.762l2.646-4.8a.737.737,0,0,0-.643-1.094H4.112L3.417,2H1V3.479H2.478L5.139,9.091l-1,1.8a1.481,1.481,0,0,0,1.293,2.2H14.3V11.612H5.435l.813-1.479ZM4.814,4.958h8.98l-2.04,3.7H6.566Zm.621,8.873a1.479,1.479,0,1,0,1.478,1.479A1.477,1.477,0,0,0,5.435,13.83Zm7.391,0A1.479,1.479,0,1,0,14.3,15.309,1.477,1.477,0,0,0,12.826,13.83Z" transform="translate(1 0.606)"/>
    </g>
  </g>
</svg>
