<svg xmlns="http://www.w3.org/2000/svg" xmlns:xlink="http://www.w3.org/1999/xlink" width="19" height="19" viewBox="0 0 19 19">
  <defs>
    <style>
      .cls-1 {
        clip-path: url(#clip-ico-9);
      }

      .cls-2 {
        fill: currentColor;
      }

      .cls-3 {
        fill: #fff0;
      }
    </style>
    <clipPath id="clip-ico-9">
      <rect width="19" height="19"/>
    </clipPath>
  </defs>
  <g id="ico-9" class="cls-1">
    <rect class="cls-3" width="19" height="19"/>
    <g id="settings-cog" transform="translate(1.678 1.681)">
      <path id="Path_192" data-name="Path 192" class="cls-2" d="M15.542,6.633A.669.669,0,0,0,15.1,6.1l-1.232-.438a6.4,6.4,0,0,0-.247-.6l.561-1.18A.67.67,0,0,0,14.12,3.2a7.834,7.834,0,0,0-1.678-1.678.669.669,0,0,0-.684-.065l-1.179.56a6.387,6.387,0,0,0-.6-.247L9.539.537A.67.67,0,0,0,9.01.1,7.11,7.11,0,0,0,6.635.1a.67.67,0,0,0-.529.438L5.668,1.769a6.364,6.364,0,0,0-.6.247l-1.179-.56a.669.669,0,0,0-.684.065A7.834,7.834,0,0,0,1.525,3.2a.67.67,0,0,0-.065.685l.561,1.18a6.418,6.418,0,0,0-.247.6L.54,6.1a.67.67,0,0,0-.438.53A7.746,7.746,0,0,0,0,7.819,7.752,7.752,0,0,0,.1,9.005a.669.669,0,0,0,.438.531l1.232.438a6.489,6.489,0,0,0,.247.6l-.561,1.179a.67.67,0,0,0,.065.684A7.835,7.835,0,0,0,3.2,14.117a.668.668,0,0,0,.684.065l1.179-.56a6.387,6.387,0,0,0,.6.247L6.106,15.1a.67.67,0,0,0,.529.438,7.761,7.761,0,0,0,1.187.1,7.76,7.76,0,0,0,1.187-.1.67.67,0,0,0,.529-.438l.438-1.232a6.387,6.387,0,0,0,.6-.247l1.179.56a.669.669,0,0,0,.685-.065,7.834,7.834,0,0,0,1.678-1.678.67.67,0,0,0,.065-.684l-.561-1.179a6.418,6.418,0,0,0,.247-.6L15.1,9.536a.669.669,0,0,0,.438-.531,7.751,7.751,0,0,0,.1-1.186A7.749,7.749,0,0,0,15.542,6.633ZM14.268,8.41l-1.156.411a.669.669,0,0,0-.418.442,5.036,5.036,0,0,1-.4.982.67.67,0,0,0-.017.608l.524,1.1a6.471,6.471,0,0,1-.838.838l-1.1-.524a.668.668,0,0,0-.608.017,5.07,5.07,0,0,1-.983.4.669.669,0,0,0-.441.418l-.411,1.156a5.475,5.475,0,0,1-1.183,0L6.82,13.108a.67.67,0,0,0-.441-.418,5.054,5.054,0,0,1-.983-.4.666.666,0,0,0-.608-.017l-1.1.524a6.52,6.52,0,0,1-.838-.838l.524-1.1a.67.67,0,0,0-.017-.608,5.044,5.044,0,0,1-.4-.983.67.67,0,0,0-.418-.441L1.377,8.41a5.428,5.428,0,0,1,0-1.183l1.156-.411a.669.669,0,0,0,.418-.441,5.083,5.083,0,0,1,.4-.983.67.67,0,0,0,.017-.608l-.524-1.1a6.514,6.514,0,0,1,.838-.838l1.1.524A.668.668,0,0,0,5.4,3.351a5.045,5.045,0,0,1,.982-.4.67.67,0,0,0,.441-.418l.411-1.156a5.418,5.418,0,0,1,1.183,0l.411,1.156a.67.67,0,0,0,.441.418,5.054,5.054,0,0,1,.983.4.666.666,0,0,0,.608.017l1.1-.524a6.514,6.514,0,0,1,.838.838l-.524,1.1a.67.67,0,0,0,.017.608,5.064,5.064,0,0,1,.4.983.669.669,0,0,0,.418.442l1.156.411a5.432,5.432,0,0,1,0,1.183Z" transform="translate(0 0)"/>
      <path id="Path_193" data-name="Path 193" class="cls-2" d="M55.655,50.8a3.1,3.1,0,1,0,3.1,3.1A3.106,3.106,0,0,0,55.655,50.8Zm0,4.865A1.762,1.762,0,1,1,57.418,53.9,1.764,1.764,0,0,1,55.655,55.667Z" transform="translate(-47.833 -46.243)"/>
    </g>
  </g>
</svg>
