<svg xmlns="http://www.w3.org/2000/svg" xmlns:xlink="http://www.w3.org/1999/xlink" width="19" height="19" viewBox="0 0 19 19">
  <defs>
    <style>
      .cls-1 {
        clip-path: url(#clip-ico-7);
      }

      .cls-2 {
        fill: currentColor;
      }

      .cls-3 {
        fill: #fff0;
      }
    </style>
    <clipPath id="clip-ico-7">
      <rect width="19" height="19"/>
    </clipPath>
  </defs>
  <g id="ico-7" class="cls-1">
    <rect class="cls-3" width="19" height="19"/>
    <g id="Group_223" data-name="Group 223" transform="translate(2.5 3.101)">
      <g id="Group_222" data-name="Group 222">
        <path id="Path_183" data-name="Path 183" class="cls-2" d="M14.6,2H3.4A1.452,1.452,0,0,0,2,3.4V5.507A1.414,1.414,0,0,0,2.7,6.69V14.6A1.5,1.5,0,0,0,4.1,16h9.8a1.5,1.5,0,0,0,1.4-1.4V6.69A1.414,1.414,0,0,0,16,5.507V3.4A1.452,1.452,0,0,0,14.6,2Zm-.7,12.6H4.1V6.9h9.8Zm.7-9.1H3.4V3.4H14.6Z" transform="translate(-2 -2)"/>
        <rect id="Rectangle_3658" data-name="Rectangle 3658" class="cls-2" width="6" height="2" transform="translate(4 6.667)"/>
      </g>
    </g>
  </g>
</svg>
