<?xml version="1.0" standalone="no"?>
<!DOCTYPE svg PUBLIC "-//W3C//DTD SVG 20010904//EN"
 "http://www.w3.org/TR/2001/REC-SVG-20010904/DTD/svg10.dtd">
<svg version="1.0" xmlns="http://www.w3.org/2000/svg"
 width="512.000000pt" height="512.000000pt" viewBox="0 0 512.000000 512.000000"
 preserveAspectRatio="xMidYMid meet">
<metadata>
Created by potrace 1.14, written by Peter Selinger 2001-2017
</metadata>
<g transform="translate(0.000000,512.000000) scale(0.100000,-0.100000)"
fill="#000000" stroke="none">
<path d="M2259 5116 c-2 -2 -24 -6 -49 -10 -66 -8 -112 -16 -140 -22 -14 -3
-36 -8 -50 -10 -60 -11 -264 -70 -360 -106 -239 -88 -544 -263 -735 -423 -373
-311 -647 -708 -798 -1155 -37 -112 -90 -321 -102 -405 -4 -27 -10 -59 -13
-70 -3 -11 -7 -157 -8 -325 -3 -322 -1 -340 50 -597 15 -76 62 -228 106 -343
11 -30 26 -68 32 -85 56 -151 253 -474 383 -630 193 -231 374 -387 658 -569
68 -43 338 -176 359 -176 8 0 18 -4 24 -9 12 -13 210 -78 309 -102 118 -29
152 -36 345 -65 86 -12 460 -11 570 2 197 24 416 75 565 130 39 14 83 30 98
34 63 20 339 163 442 230 93 61 196 136 241 175 335 289 559 587 722 960 58
134 127 344 148 450 2 11 6 31 9 45 36 163 50 308 50 525 0 170 -4 234 -21
370 -8 65 -43 227 -65 301 -11 38 -22 79 -25 92 -2 13 -11 40 -18 60 -8 20
-26 69 -41 107 -14 39 -57 133 -95 210 -324 661 -928 1153 -1645 1340 -229 60
-299 68 -631 72 -171 1 -313 1 -315 -1z"/>
</g>
</svg>
